<?xml version="1.0" encoding="UTF-8"?>
<svg xmlns="http://www.w3.org/2000/svg" width="546" height="344" viewBox="0 0 273 172" fill="#d4af37"><defs><path id="g-68" d="M267 -594Q227 -590 182 -575Q117 -553 75.0 -518.0Q33 -483 22 -441Q11 -394 43 -336Q49 -325 53.0 -322.0Q57 -319 57.0 -324.0Q57 -329 54 -342Q43 -385 49.0 -412.5Q55 -440 83 -467Q133 -517 227 -537Q294 -551 395.0 -536.5Q496 -522 608 -482Q733 -438 866.0 -366.5Q999 -295 1108 -212Q1242 -112 1322.0 -16.5Q1402 79 1437 178Q1444 199 1455.0 243.5Q1466 288 1469 307Q1477 364 1471.0 405.5Q1465 447 1441 495Q1408 561 1345 619Q1313 649 1277.5 671.5Q1242 694 1185 720Q1051 781 887 810Q832 819 702 823L654 824L652 819Q649 814 645 801Q642 791 604 673Q513 397 482.0 293.5Q451 190 430 92Q408 -10 396.0 -103.5Q384 -197 387 -241Q388 -257 400.5 -281.5Q413 -306 419 -324Q425 -339 432.0 -364.0Q439 -389 437 -391Q436 -393 439 -393Q449 -393 438 -405Q432 -413 425 -415Q405 -422 385.5 -403.5Q366 -385 352 -347Q347 -332 342.0 -310.5Q337 -289 333.5 -268.5Q330 -248 330 -236Q330 -228 328.0 -224.5Q326 -221 316 -209Q272 -157 169 -60Q103 3 68.5 40.5Q34 78 1 121Q-98 254 -112 367Q-119 419 -108 468Q-95 532 -56 586Q-49 597 -35.0 612.0Q-21 627 -6.0 642.0Q9 657 21 667Q92 723 177.5 759.5Q263 796 381 820Q426 829 492.5 837.0Q559 845 586 845Q591 845 593.5 845.5Q596 846 598.5 846.5Q601 847 602.5 848.0Q604 849 605.5 851.0Q607 853 608.0 855.5Q609 858 610 862Q657 988 679 1041Q690 1067 697.5 1074.0Q705 1081 715 1077Q727 1072 725 1052Q723 1026 681 901Q664 851 665.0 850.5Q666 850 727 847Q908 841 1060 801Q1234 756 1345 666Q1363 652 1389.5 625.0Q1416 598 1428 582Q1519 461 1513.0 310.0Q1507 159 1407 11Q1336 -94 1204.5 -203.5Q1073 -313 907 -405Q636 -556 415 -588Q329 -601 267 -594ZM330 -146Q344 51 419 303Q443 381 509.5 578.0Q576 775 583 787Q585 791 590.5 805.0Q596 819 596 821Q596 823 587.5 823.0Q579 823 565.0 822.0Q551 821 533.0 819.5Q515 818 494.5 815.5Q474 813 454.0 810.5Q434 808 415.0 805.0Q396 802 382 799Q337 790 283.0 772.5Q229 755 177.5 733.0Q126 711 89 690Q39 660 14 635Q-18 605 -43.5 566.0Q-69 527 -81 491Q-109 409 -84 328Q-71 286 -34.5 221.5Q2 157 37 115Q53 95 68 77Q87 53 134.0 9.0Q181 -35 207 -55Q217 -62 254.5 -100.0Q292 -138 312 -161Q327 -178 327.5 -177.5Q328 -177 330 -146Z" /><path id="g-86" d="M60 -955Q30 -949 6 -926Q-25 -893 -32 -828Q-48 -666 155 -199Q156 -197 140 -193Q81 -181 26.0 -144.5Q-29 -108 -60 -61Q-126 37 -126 168Q-126 213 -119.5 252.0Q-113 291 -99.0 331.0Q-85 371 -62 418Q-3 534 97 637Q252 795 414 850Q541 892 581 809Q595 780 595 737Q595 698 583 651Q566 580 521.0 469.0Q476 358 376 141Q333 49 268 -97Q225 -193 226.0 -194.0Q227 -195 257.0 -196.0Q287 -197 288 -199Q291 -204 249 -204H220L200 -251Q65 -570 37 -738Q27 -798 33.0 -839.0Q39 -880 61 -891Q78 -900 105 -891Q166 -871 257 -777Q344 -688 450.5 -547.5Q557 -407 764 -110Q975 194 1113.5 370.0Q1252 546 1383 678Q1528 823 1630 872Q1714 912 1752 870Q1759 862 1766.5 847.0Q1774 832 1773 825L1772 819L1767 827Q1755 845 1734 850Q1703 856 1677 848Q1628 831 1551.0 771.0Q1474 711 1390 624Q1252 478 1119.0 304.5Q986 131 780 -174Q576 -477 477 -607Q324 -811 219 -894Q129 -967 60 -955ZM164 -179Q169 -166 261 32Q289 91 334 186Q430 383 467.0 464.5Q504 546 529 613Q562 699 562 753Q562 799 539 822Q523 839 489 839Q445 838 376 808Q253 752 139.0 643.5Q25 535 -40 411Q-101 294 -104 178Q-107 100 -85 32Q-61 -40 -9 -92Q54 -156 148 -180Q159 -183 161.0 -183.0Q163 -183 164 -179Z" /></defs><g transform="scale(0.072,-0.072)"><use href="#g-68" x="278" y="-1250" /><use href="#g-86" x="1866" y="-1250" /></g></svg>